<svg width="103" height="25" viewBox="0 0 103 25" fill="none" xmlns="http://www.w3.org/2000/svg">
<path d="M12.8622 5.68672L12.7016 5.67438C9.30879 5.52203 5.93243 4.95382 2.66724 3.98621C3.86955 5.3491 7.2871 9.38837 9.1894 13.3865L9.23468 13.4812C10.6799 16.3223 11.804 19.324 12.5534 22.4368C13.2822 20.3327 14.9374 15.9764 17.1856 12.6906L17.2762 12.5548C19.0508 9.76308 21.1549 7.18137 23.5595 4.88792C21.3484 5.29967 16.7944 6.00377 12.8663 5.68672H12.8622Z" fill="#1C2128"/>
<path d="M17.2513 14.4942C15.4972 17.4259 14.1879 20.8516 13.525 22.7745L13.2779 23.4869C13.6156 24.2157 14.5749 24.4586 15.209 23.9027C16.5019 22.7786 17.7907 21.6546 19.0836 20.5264C19.4418 20.2134 19.5901 19.7276 19.4665 19.2705C18.9477 17.3394 18.4289 15.4083 17.9101 13.4772L17.2554 14.5066L17.2472 14.4942H17.2513Z" fill="#1C2128"/>
<path d="M1.09429 3.75568C0.410782 3.83803 -0.120367 4.4886 0.0237456 5.22564C0.353147 6.90559 0.682529 8.58965 1.00781 10.2696C1.0984 10.7349 1.44841 11.1096 1.90545 11.229C3.8448 11.7478 5.78825 12.2666 7.7276 12.7854C5.79237 9.19906 2.82365 5.71563 1.89721 4.66154L1.09429 3.75159V3.75568Z" fill="#1C2128"/>
<path d="M14.4638 4.73163C17.8279 4.78927 21.3936 4.24164 23.3659 3.87518L24.3294 3.69813C24.8811 3.04344 24.6217 2.01817 23.79 1.73406C22.1718 1.1782 20.5495 0.622339 18.9313 0.0664741C18.4825 -0.085874 17.9843 0.0294044 17.6508 0.362923C16.2179 1.79994 14.7809 3.23284 13.348 4.66985L14.4762 4.71926L14.4679 4.73572L14.4638 4.73163Z" fill="#1C2128"/>
<path d="M32.317 18.5681H34.3346C34.8534 17.1887 36.1834 16.2005 37.7439 16.2005C39.3045 16.2005 40.6344 17.1887 41.1532 18.5681H43.1708H43.8872L39.4527 6.22375C39.3333 5.89847 39.0245 5.68024 38.6786 5.68024H36.8298C36.4839 5.68024 36.171 5.89847 36.0557 6.22375L31.6212 18.5681H32.317ZM35.8828 14.047L37.7439 8.66131L39.3209 13.2194L39.605 14.047L39.8191 14.6688C39.1768 14.4094 38.4768 14.2652 37.7439 14.2652C37.011 14.2652 36.3151 14.4094 35.6728 14.6688L35.8869 14.0511L35.8828 14.047Z" fill="#1C2128"/>
<path d="M60.5303 17.8476C59.5215 17.2835 58.7227 16.497 58.1339 15.4965C57.5451 14.4959 57.2487 13.3595 57.2487 12.0954C57.2487 10.8313 57.5451 9.71547 58.1339 8.71079C58.7227 7.71024 59.5215 6.92378 60.5303 6.35968C61.5391 5.79558 62.6467 5.51147 63.849 5.51147C65.0513 5.51147 66.1755 5.79558 67.176 6.35968C68.1766 6.92378 68.9712 7.71024 69.5559 8.71079C70.1406 9.71135 70.4329 10.8395 70.4329 12.0954C70.4329 13.3512 70.1406 14.4959 69.5559 15.4965C68.9712 16.497 68.1766 17.2835 67.1678 17.8476C66.159 18.4117 65.0513 18.6958 63.849 18.6958C62.6467 18.6958 61.5391 18.4117 60.5303 17.8476ZM65.8955 15.8629C66.4843 15.5129 66.9454 15.0106 67.2789 14.36C67.6125 13.7094 67.7771 12.9518 67.7771 12.0913C67.7771 11.2307 67.6125 10.4772 67.2789 9.83075C66.9454 9.1843 66.4843 8.6902 65.8955 8.34433C65.3067 7.99846 64.6231 7.82964 63.849 7.82964C63.0749 7.82964 62.3873 8.00257 61.7944 8.34433C61.2015 8.68608 60.7321 9.1843 60.4027 9.83075C60.0691 10.4772 59.9045 11.2307 59.9045 12.0913C59.9045 12.9518 60.0691 13.7094 60.4027 14.36C60.7362 15.0106 61.1973 15.5129 61.7944 15.8629C62.3914 16.2129 63.0749 16.3899 63.849 16.3899C64.6231 16.3899 65.3067 16.2129 65.8955 15.8629Z" fill="#1C2128"/>
<path d="M72.7677 8.70657C73.34 7.70602 74.1182 6.92369 75.1105 6.36371C76.0987 5.80372 77.2105 5.52374 78.4375 5.52374C79.8745 5.52374 81.1344 5.89432 82.2174 6.63136C83.3003 7.36839 84.0538 8.38954 84.4861 9.69479H82.4232C81.925 9.69479 81.4474 9.48066 81.1468 9.08538C80.9039 8.76421 80.6115 8.50892 80.2739 8.31128C79.7386 8.00247 79.121 7.85012 78.421 7.85012C77.6716 7.85012 77.0046 8.02307 76.4199 8.37718C75.8352 8.72717 75.3823 9.22126 75.057 9.8636C74.7318 10.5059 74.567 11.2512 74.567 12.1118C74.567 12.9723 74.7318 13.7094 75.057 14.3517C75.3823 14.994 75.8393 15.4964 76.4199 15.8464C77.0005 16.1963 77.6716 16.3734 78.421 16.3734C79.121 16.3734 79.7386 16.2169 80.2739 15.904C80.6115 15.7063 80.9039 15.447 81.1468 15.1258C81.4474 14.7305 81.9291 14.5123 82.4273 14.5123H84.4902C84.0579 15.8299 83.3085 16.851 82.2297 17.5839C81.155 18.3169 79.891 18.6833 78.4375 18.6833C77.2064 18.6833 76.0987 18.4033 75.1105 17.8433C74.1223 17.2834 73.34 16.5052 72.7677 15.5087C72.1953 14.5123 71.9112 13.38 71.9112 12.1159C71.9112 10.8518 72.1953 9.71537 72.7677 8.71482V8.70657Z" fill="#1C2128"/>
<path d="M86.8164 18.5681H88.834C89.3528 17.1887 90.6828 16.2005 92.2434 16.2005C93.8039 16.2005 95.1338 17.1887 95.6526 18.5681H97.6702H98.3867L93.9521 6.22375C93.8327 5.89847 93.5239 5.68024 93.178 5.68024H91.3292C90.9834 5.68024 90.6704 5.89847 90.5551 6.22375L86.1206 18.5681H86.8164ZM90.3822 14.047L92.2434 8.66131L93.8203 13.2194L94.1044 14.047L94.3186 14.6688C93.6762 14.4094 92.9763 14.2652 92.2434 14.2652C91.5104 14.2652 90.8146 14.4094 90.1722 14.6688L90.3864 14.0511L90.3822 14.047Z" fill="#1C2128"/>
<path d="M56.178 5.69269L51.6569 18.0247C51.5375 18.3499 51.2287 18.564 50.8828 18.564H48.8982C48.5524 18.564 48.2435 18.3499 48.1241 18.0247L43.6031 5.69269H45.7813C46.1313 5.69269 46.4442 5.91505 46.5595 6.24857L49.907 15.9288L53.2381 6.24857C53.3534 5.91505 53.6663 5.69269 54.0163 5.69269H56.178Z" fill="#1C2128"/>
</svg>
